<mxfile host="Electron" modified="2023-11-24T07:44:06.335Z" agent="Mozilla/5.0 (Windows NT 10.0; Win64; x64) AppleWebKit/537.36 (KHTML, like Gecko) draw.io/21.1.2 Chrome/106.0.5249.199 Electron/21.4.3 Safari/537.36" etag="54uTCXdf7JFGppFu2BBC" version="21.1.2" type="device">
  <diagram name="第 1 页" id="WewvAywsZnRPqZBBMTS6">
    <mxGraphModel dx="1890" dy="1761" grid="1" gridSize="10" guides="1" tooltips="1" connect="1" arrows="1" fold="1" page="1" pageScale="1" pageWidth="827" pageHeight="1169" math="0" shadow="0">
      <root>
        <mxCell id="0" />
        <mxCell id="1" parent="0" />
        <mxCell id="vT3S1yLVx-ziakN3UcTS-1" value="经理" style="shape=umlActor;verticalLabelPosition=bottom;verticalAlign=top;html=1;outlineConnect=0;" vertex="1" parent="1">
          <mxGeometry x="-80" y="260" width="30" height="60" as="geometry" />
        </mxCell>
        <mxCell id="vT3S1yLVx-ziakN3UcTS-2" value="执行人" style="shape=umlActor;verticalLabelPosition=bottom;verticalAlign=top;html=1;outlineConnect=0;" vertex="1" parent="1">
          <mxGeometry x="910" y="220" width="30" height="60" as="geometry" />
        </mxCell>
        <mxCell id="vT3S1yLVx-ziakN3UcTS-3" value="学员" style="shape=umlActor;verticalLabelPosition=bottom;verticalAlign=top;html=1;outlineConnect=0;" vertex="1" parent="1">
          <mxGeometry x="-80" y="500" width="30" height="60" as="geometry" />
        </mxCell>
        <mxCell id="vT3S1yLVx-ziakN3UcTS-4" value="系统管理员" style="shape=umlActor;verticalLabelPosition=bottom;verticalAlign=top;html=1;outlineConnect=0;" vertex="1" parent="1">
          <mxGeometry x="-80" y="380" width="30" height="60" as="geometry" />
        </mxCell>
        <mxCell id="vT3S1yLVx-ziakN3UcTS-7" value="评教" style="ellipse;whiteSpace=wrap;html=1;" vertex="1" parent="1">
          <mxGeometry x="20" y="510" width="110" height="40" as="geometry" />
        </mxCell>
        <mxCell id="vT3S1yLVx-ziakN3UcTS-9" value="" style="endArrow=open;endFill=1;endSize=12;html=1;rounded=0;" edge="1" parent="1">
          <mxGeometry width="160" relative="1" as="geometry">
            <mxPoint x="-40" y="529.5799999999999" as="sourcePoint" />
            <mxPoint x="20" y="529.5799999999999" as="targetPoint" />
          </mxGeometry>
        </mxCell>
        <mxCell id="vT3S1yLVx-ziakN3UcTS-13" value="维护讲师信息" style="ellipse;whiteSpace=wrap;html=1;" vertex="1" parent="1">
          <mxGeometry x="600" y="-120" width="110" height="40" as="geometry" />
        </mxCell>
        <mxCell id="vT3S1yLVx-ziakN3UcTS-14" value="" style="endArrow=open;endFill=1;endSize=12;html=1;rounded=0;entryX=1;entryY=0.5;entryDx=0;entryDy=0;" edge="1" parent="1" target="vT3S1yLVx-ziakN3UcTS-13">
          <mxGeometry width="160" relative="1" as="geometry">
            <mxPoint x="900" y="250" as="sourcePoint" />
            <mxPoint x="690" y="240" as="targetPoint" />
          </mxGeometry>
        </mxCell>
        <mxCell id="vT3S1yLVx-ziakN3UcTS-16" value="" style="endArrow=open;endFill=1;endSize=12;html=1;rounded=0;entryX=1;entryY=0.5;entryDx=0;entryDy=0;" edge="1" parent="1" target="vT3S1yLVx-ziakN3UcTS-27">
          <mxGeometry width="160" relative="1" as="geometry">
            <mxPoint x="900" y="260" as="sourcePoint" />
            <mxPoint x="750" y="260" as="targetPoint" />
          </mxGeometry>
        </mxCell>
        <mxCell id="vT3S1yLVx-ziakN3UcTS-17" value="维护培训信息" style="ellipse;whiteSpace=wrap;html=1;" vertex="1" parent="1">
          <mxGeometry x="640" y="570" width="110" height="40" as="geometry" />
        </mxCell>
        <mxCell id="vT3S1yLVx-ziakN3UcTS-18" value="" style="endArrow=open;endFill=1;endSize=12;html=1;rounded=0;entryX=1;entryY=0.5;entryDx=0;entryDy=0;" edge="1" parent="1" target="vT3S1yLVx-ziakN3UcTS-17">
          <mxGeometry width="160" relative="1" as="geometry">
            <mxPoint x="900" y="270" as="sourcePoint" />
            <mxPoint x="700" y="320" as="targetPoint" />
          </mxGeometry>
        </mxCell>
        <mxCell id="vT3S1yLVx-ziakN3UcTS-19" value="&amp;lt;&amp;lt;include&amp;gt;&amp;gt;" style="endArrow=open;endSize=12;dashed=1;html=1;rounded=0;exitX=0;exitY=0.5;exitDx=0;exitDy=0;entryX=1;entryY=0.5;entryDx=0;entryDy=0;" edge="1" parent="1" source="vT3S1yLVx-ziakN3UcTS-13" target="vT3S1yLVx-ziakN3UcTS-20">
          <mxGeometry width="160" relative="1" as="geometry">
            <mxPoint x="360" y="-40" as="sourcePoint" />
            <mxPoint x="470" y="-100" as="targetPoint" />
          </mxGeometry>
        </mxCell>
        <mxCell id="vT3S1yLVx-ziakN3UcTS-20" value="录入讲师信息" style="ellipse;whiteSpace=wrap;html=1;" vertex="1" parent="1">
          <mxGeometry x="310" y="-160" width="110" height="40" as="geometry" />
        </mxCell>
        <mxCell id="vT3S1yLVx-ziakN3UcTS-21" value="&amp;lt;&amp;lt;include&amp;gt;&amp;gt;" style="endArrow=open;endSize=12;dashed=1;html=1;rounded=0;exitX=0.361;exitY=1.004;exitDx=0;exitDy=0;exitPerimeter=0;entryX=1;entryY=0.5;entryDx=0;entryDy=0;" edge="1" parent="1" source="vT3S1yLVx-ziakN3UcTS-13" target="vT3S1yLVx-ziakN3UcTS-22">
          <mxGeometry width="160" relative="1" as="geometry">
            <mxPoint x="660" y="-30" as="sourcePoint" />
            <mxPoint x="530" y="-30" as="targetPoint" />
          </mxGeometry>
        </mxCell>
        <mxCell id="vT3S1yLVx-ziakN3UcTS-22" value="删除讲师信息" style="ellipse;whiteSpace=wrap;html=1;" vertex="1" parent="1">
          <mxGeometry x="360" y="-40" width="110" height="40" as="geometry" />
        </mxCell>
        <mxCell id="vT3S1yLVx-ziakN3UcTS-23" value="&amp;lt;&amp;lt;include&amp;gt;&amp;gt;" style="endArrow=open;endSize=12;dashed=1;html=1;rounded=0;entryX=1;entryY=0.5;entryDx=0;entryDy=0;exitX=0;exitY=0;exitDx=0;exitDy=0;" edge="1" parent="1" source="vT3S1yLVx-ziakN3UcTS-13" target="vT3S1yLVx-ziakN3UcTS-24">
          <mxGeometry width="160" relative="1" as="geometry">
            <mxPoint x="620" y="-120" as="sourcePoint" />
            <mxPoint x="590" y="-190" as="targetPoint" />
          </mxGeometry>
        </mxCell>
        <mxCell id="vT3S1yLVx-ziakN3UcTS-24" value="查看讲师信息" style="ellipse;whiteSpace=wrap;html=1;" vertex="1" parent="1">
          <mxGeometry x="400" y="-270" width="110" height="40" as="geometry" />
        </mxCell>
        <mxCell id="vT3S1yLVx-ziakN3UcTS-25" value="&amp;lt;&amp;lt;include&amp;gt;&amp;gt;" style="endArrow=open;endSize=12;dashed=1;html=1;rounded=0;exitX=0.5;exitY=0;exitDx=0;exitDy=0;entryX=0.5;entryY=1;entryDx=0;entryDy=0;" edge="1" parent="1" source="vT3S1yLVx-ziakN3UcTS-13" target="vT3S1yLVx-ziakN3UcTS-26">
          <mxGeometry width="160" relative="1" as="geometry">
            <mxPoint x="830" y="-260" as="sourcePoint" />
            <mxPoint x="700" y="-260" as="targetPoint" />
          </mxGeometry>
        </mxCell>
        <mxCell id="vT3S1yLVx-ziakN3UcTS-26" value="修改讲师信息" style="ellipse;whiteSpace=wrap;html=1;" vertex="1" parent="1">
          <mxGeometry x="600" y="-290" width="110" height="40" as="geometry" />
        </mxCell>
        <mxCell id="vT3S1yLVx-ziakN3UcTS-27" value="维护学生信息" style="ellipse;whiteSpace=wrap;html=1;" vertex="1" parent="1">
          <mxGeometry x="640" y="240" width="110" height="40" as="geometry" />
        </mxCell>
        <mxCell id="vT3S1yLVx-ziakN3UcTS-28" value="&amp;lt;&amp;lt;include&amp;gt;&amp;gt;" style="endArrow=open;endSize=12;dashed=1;html=1;rounded=0;exitX=0;exitY=0.5;exitDx=0;exitDy=0;entryX=1;entryY=0.5;entryDx=0;entryDy=0;" edge="1" parent="1" source="vT3S1yLVx-ziakN3UcTS-27" target="vT3S1yLVx-ziakN3UcTS-29">
          <mxGeometry width="160" relative="1" as="geometry">
            <mxPoint x="400" y="320" as="sourcePoint" />
            <mxPoint x="510" y="260" as="targetPoint" />
          </mxGeometry>
        </mxCell>
        <mxCell id="vT3S1yLVx-ziakN3UcTS-29" value="录入学生信息" style="ellipse;whiteSpace=wrap;html=1;" vertex="1" parent="1">
          <mxGeometry x="350" y="200" width="110" height="40" as="geometry" />
        </mxCell>
        <mxCell id="vT3S1yLVx-ziakN3UcTS-30" value="&amp;lt;&amp;lt;include&amp;gt;&amp;gt;" style="endArrow=open;endSize=12;dashed=1;html=1;rounded=0;exitX=0.361;exitY=1.004;exitDx=0;exitDy=0;exitPerimeter=0;entryX=1;entryY=0.5;entryDx=0;entryDy=0;" edge="1" parent="1" source="vT3S1yLVx-ziakN3UcTS-27" target="vT3S1yLVx-ziakN3UcTS-31">
          <mxGeometry width="160" relative="1" as="geometry">
            <mxPoint x="700" y="330" as="sourcePoint" />
            <mxPoint x="570" y="330" as="targetPoint" />
          </mxGeometry>
        </mxCell>
        <mxCell id="vT3S1yLVx-ziakN3UcTS-31" value="删除学生信息" style="ellipse;whiteSpace=wrap;html=1;" vertex="1" parent="1">
          <mxGeometry x="400" y="320" width="110" height="40" as="geometry" />
        </mxCell>
        <mxCell id="vT3S1yLVx-ziakN3UcTS-32" value="&amp;lt;&amp;lt;include&amp;gt;&amp;gt;" style="endArrow=open;endSize=12;dashed=1;html=1;rounded=0;entryX=1;entryY=0.5;entryDx=0;entryDy=0;exitX=0;exitY=0;exitDx=0;exitDy=0;" edge="1" parent="1" source="vT3S1yLVx-ziakN3UcTS-27" target="vT3S1yLVx-ziakN3UcTS-33">
          <mxGeometry width="160" relative="1" as="geometry">
            <mxPoint x="660" y="240" as="sourcePoint" />
            <mxPoint x="630" y="170" as="targetPoint" />
          </mxGeometry>
        </mxCell>
        <mxCell id="vT3S1yLVx-ziakN3UcTS-33" value="查看学生信息" style="ellipse;whiteSpace=wrap;html=1;" vertex="1" parent="1">
          <mxGeometry x="440" y="90" width="110" height="40" as="geometry" />
        </mxCell>
        <mxCell id="vT3S1yLVx-ziakN3UcTS-34" value="&amp;lt;&amp;lt;include&amp;gt;&amp;gt;" style="endArrow=open;endSize=12;dashed=1;html=1;rounded=0;exitX=0.5;exitY=0;exitDx=0;exitDy=0;entryX=0.5;entryY=1;entryDx=0;entryDy=0;" edge="1" parent="1" source="vT3S1yLVx-ziakN3UcTS-27" target="vT3S1yLVx-ziakN3UcTS-35">
          <mxGeometry width="160" relative="1" as="geometry">
            <mxPoint x="870" y="100" as="sourcePoint" />
            <mxPoint x="740" y="100" as="targetPoint" />
          </mxGeometry>
        </mxCell>
        <mxCell id="vT3S1yLVx-ziakN3UcTS-35" value="修改学生信息" style="ellipse;whiteSpace=wrap;html=1;" vertex="1" parent="1">
          <mxGeometry x="640" y="70" width="110" height="40" as="geometry" />
        </mxCell>
      </root>
    </mxGraphModel>
  </diagram>
</mxfile>
